<svg width="31" height="31" viewBox="0 0 31 31" fill="none" xmlns="http://www.w3.org/2000/svg">
<path d="M10.5134 4.38106C10.908 3.59574 11.7118 3.1001 12.5908 3.1001H18.4252C19.3061 3.1001 20.1111 3.59774 20.5048 4.38551L21.4116 6.19917H24.0309C26.171 6.19917 27.9059 7.93407 27.9059 10.0742V13.4768C27.4408 13.0757 26.9124 12.7866 26.3559 12.6096V10.0742C26.3559 8.7901 25.315 7.74917 24.0309 7.74917H20.9325C20.6389 7.74917 20.3706 7.58329 20.2393 7.32069L19.1185 5.07856C18.9872 4.81598 18.7188 4.6501 18.4252 4.6501H12.5908C12.2978 4.6501 12.0299 4.81531 11.8983 5.07709L10.77 7.32217C10.6384 7.58395 10.3705 7.74917 10.0775 7.74917H6.98096C5.69689 7.74917 4.65596 8.7901 4.65596 10.0742V22.4751C4.65596 23.7591 5.69689 24.8001 6.98096 24.8001H12.7416L12.4885 25.8127C12.4432 25.9938 12.4156 26.1732 12.4043 26.3501H6.98096C4.84084 26.3501 3.10596 24.6152 3.10596 22.4751V10.0742C3.10596 7.93405 4.84086 6.19917 6.98096 6.19917H9.59965L10.5134 4.38106Z" fill="#F2F0E7"/>
<path d="M21.5251 14.0362C20.8671 11.3185 18.4187 9.30005 15.4988 9.30005C12.0747 9.30005 9.29883 12.0759 9.29883 15.5C9.29883 18.4289 11.3296 20.8833 14.0598 21.5321C14.1584 21.4131 14.2627 21.2986 14.3726 21.1887L15.4119 20.1492C12.8839 20.1029 10.8488 18.0392 10.8488 15.5C10.8488 12.9319 12.9307 10.85 15.4988 10.85C18.0379 10.85 20.1017 12.8851 20.148 15.4132L21.5251 14.0362Z" fill="#F2F0E7"/>
<path d="M22.9542 14.799L15.4686 22.2846C15.0321 22.7211 14.7225 23.2679 14.5728 23.8667L13.9924 26.1884C13.7399 27.1981 14.6545 28.1126 15.6642 27.8603L17.986 27.2798C18.5848 27.1301 19.1316 26.8205 19.5681 26.3841L27.0536 18.8985C28.1856 17.7664 28.1856 15.931 27.0536 14.799C25.9217 13.6669 24.0862 13.6669 22.9542 14.799Z" fill="#F2F0E7"/>
</svg>
